<?xml version="1.0" standalone="no"?><svg xmlns="http://www.w3.org/2000/svg" viewBox="0 0 1440 320"><path fill="#000000" fill-opacity="0.9" d="M0,96L12.6,106.7C25.3,117,51,139,76,154.7C101.1,171,126,181,152,160C176.8,139,202,85,227,90.7C252.6,96,278,160,303,176C328.4,192,354,160,379,138.7C404.2,117,429,107,455,101.3C480,96,505,96,531,122.7C555.8,149,581,203,606,218.7C631.6,235,657,213,682,192C707.4,171,733,149,758,133.3C783.2,117,808,107,834,112C858.9,117,884,139,909,144C934.7,149,960,139,985,133.3C1010.5,128,1036,128,1061,160C1086.3,192,1112,256,1137,261.3C1162.1,267,1187,213,1213,176C1237.9,139,1263,117,1288,122.7C1313.7,128,1339,160,1364,149.3C1389.5,139,1415,85,1427,58.7L1440,32L1440,320L1427.4,320C1414.7,320,1389,320,1364,320C1338.9,320,1314,320,1288,320C1263.2,320,1238,320,1213,320C1187.4,320,1162,320,1137,320C1111.6,320,1086,320,1061,320C1035.8,320,1011,320,985,320C960,320,935,320,909,320C884.2,320,859,320,834,320C808.4,320,783,320,758,320C732.6,320,707,320,682,320C656.8,320,632,320,606,320C581.1,320,556,320,531,320C505.3,320,480,320,455,320C429.5,320,404,320,379,320C353.7,320,328,320,303,320C277.9,320,253,320,227,320C202.1,320,177,320,152,320C126.3,320,101,320,76,320C50.5,320,25,320,13,320L0,320Z"></path></svg>